# xmcd
#
# Track frame offsets: 
#        150
#        15770
#        44935
#        67413
#        98541
#        118759
#        146735
#        164086
#        189546
#        209400
#        258718
#
# Disc length: 4018 seconds
#
# Revision: 0
# Processed by: cddbd v1.5.2PL0 Copyright (c) Steve Scherf et al.
# Submitted via: ExactAudioCopy v0.99pb3
#
DISCID=ad0fb00b
DTITLE=Bobby Bryan - Stranger Blues
DYEAR=2007
DGENRE=Blues
TTITLE0=Stranger Blues
TTITLE1=The Devil's Playground
TTITLE2=Can't Find Love In This City
TTITLE3=You Treat Me Like A Wife
TTITLE4=State Of Emergency
TTITLE5=Svae Your Tears (For The Next Fool)
TTITLE6=Down Don't Bother Me
TTITLE7=Talk About It
TTITLE8=Forty Days
TTITLE9=She Don't Bring None To Me - Live
TTITLE10=I Just Want To Make Love To You - Live
EXTD=
EXTT0=
EXTT1=
EXTT2=
EXTT3=
EXTT4=
EXTT5=
EXTT6=
EXTT7=
EXTT8=
EXTT9=
EXTT10=
PLAYORDER=
